<svg xmlns="http://www.w3.org/2000/svg" xmlns:xlink="http://www.w3.org/1999/xlink" width="24" height="24"><defs><path id="a" d="M6.5 18a1.5 1.5 0 11-.001 3.001A1.5 1.5 0 016.5 18zm12 0a1.5 1.5 0 11-.001 3.001A1.5 1.5 0 0118.5 18zM3.857.2a.8.8 0 01.793.694l.542 4.068H21a.8.8 0 01.784.957l-1.904 9.524a.8.8 0 01-.785.643H5.762a.8.8 0 01-.793-.695L3.157 1.8H1A.8.8 0 111 .2zm16.167 6.362H5.406l1.056 7.924H18.44l1.585-7.924z"/></defs><use fill="#fff" xlink:href="#a" transform="translate(1 1)" fill-rule="evenodd"/></svg>