<svg xmlns="http://www.w3.org/2000/svg" width="24" height="24"><defs><linearGradient id="a" x1="96.603%" x2="70.152%" y1="4.169%" y2="81.14%"><stop offset="0%" stop-color="#59B5FF"/><stop offset="100%" stop-color="#1766CD"/></linearGradient><linearGradient id="b" x1="96.603%" x2="70.152%" y1="4.169%" y2="81.14%"><stop offset="0%" stop-color="#59B5FF"/><stop offset="100%" stop-color="#1766CD"/></linearGradient><linearGradient id="c" x1="51.864%" x2="50.806%" y1="4.169%" y2="81.14%"><stop offset="0%" stop-color="#59B5FF"/><stop offset="100%" stop-color="#1766CD"/></linearGradient><linearGradient id="d" x1="96.603%" x2="70.152%" y1="4.171%" y2="81.138%"><stop offset="0%" stop-color="#59B5FF"/><stop offset="100%" stop-color="#1766CD"/></linearGradient><linearGradient id="e" x1="96.603%" x2="70.152%" y1="47.821%" y2="51.481%"><stop offset="0%" stop-color="#59B5FF"/><stop offset="100%" stop-color="#1766CD"/></linearGradient></defs><g fill="none"><path fill="url(#a)" d="M23.436 6.336L17.664.564a2.902 2.902 0 01-4.104 0L.564 13.56a2.902 2.902 0 010 4.104l5.772 5.772a2.902 2.902 0 014.104 0L23.436 10.44a2.902 2.902 0 010-4.104z"/><path fill="url(#a)" d="M23.436 10.44L10.44 23.436a2.902 2.902 0 00-4.104 0L3.45 20.55l17.1-17.1 2.886 2.886a2.902 2.902 0 000 4.104z"/><path fill="#FCD600" d="M21.952 6.799l-4.75-4.751a2.388 2.388 0 01-3.378 0L1.943 13.929a2.39 2.39 0 010 3.378l4.75 4.75a2.388 2.388 0 013.378 0l11.88-11.881a2.389 2.389 0 010-3.377z"/><path fill="#FCD600" d="M21.952 10.176L10.07 22.057a2.388 2.388 0 00-3.376 0l-2.376-2.375L19.577 4.423 21.952 6.8a2.387 2.387 0 000 3.377z"/><path fill="url(#b)" d="M2.997 5.868a1.938 1.938 0 00.572-1.274 1.732 1.732 0 00-.103-.656 1.531 1.531 0 00-.367-.573 1.544 1.544 0 00-.568-.363 1.668 1.668 0 00-.655-.102c-.221.01-.444.064-.667.162a1.938 1.938 0 00-.604.414 1.928 1.928 0 00-.577 1.271c-.01.221.024.44.103.655.079.216.2.406.363.569.169.168.36.29.573.367.213.076.431.11.655.102.223-.007.446-.059.667-.154.22-.094.423-.234.608-.418zm-1.97-.935a.945.945 0 01-.055-.657.62.62 0 01.162-.272.708.708 0 01.588-.201c.24.018.451.12.635.303.09.09.16.19.213.3a.927.927 0 01.06.66.63.63 0 01-.162.272c-.153.153-.35.218-.592.197a1.002 1.002 0 01-.64-.308 1.02 1.02 0 01-.209-.295z" transform="translate(6.938 7.219)"/><path fill="url(#c)" d="M4.947.018l-.908.055.647 4.753.371 4.823.908-.055-.624-4.871z" transform="translate(6.938 7.219)"/><path fill="#1D6FDA" d="M12.903 16.813l-.908.055-.347-4.515.614-.615.017.205z"/><path fill="url(#d)" d="M15.895 10.545a1.628 1.628 0 00-.656-.103 1.945 1.945 0 00-1.279.576 1.953 1.953 0 00-.418.608 1.848 1.848 0 00-.154.667c-.008.224.026.442.103.656.076.213.198.404.367.572.168.168.359.29.572.367.213.076.43.11.651.099a1.935 1.935 0 001.271-.577c.185-.184.324-.386.419-.607.094-.222.149-.444.162-.668a1.592 1.592 0 00-.47-1.22 1.589 1.589 0 00-.568-.37zm.035 1.409a.94.94 0 01.055.655.61.61 0 01-.162.272.712.712 0 01-.588.202.99.99 0 01-.635-.304c-.09-.09-.16-.19-.213-.3a.936.936 0 01-.06-.659.628.628 0 01.162-.273.685.685 0 01.265-.162.78.78 0 01.32-.035 1.066 1.066 0 01.857.604z"/><path fill="url(#e)" d="M14.403 6.029h3.614v1h-3.614z" transform="rotate(135 16.21 6.423)"/><path fill="url(#a)" d="M19.133 6.792l-2.555 2.555-.557-.557 2.555-2.556z"/><path fill="url(#e)" d="M4.511 15.921h3.614v1H4.511z" transform="rotate(135 6.318 16.315)"/><path fill="url(#e)" d="M5.878 17.288h3.614v1H5.878z" transform="rotate(135 7.685 17.682)"/></g></svg>