<svg width="18" height="18" fill="none" xmlns="http://www.w3.org/2000/svg"><path fill-rule="evenodd" clip-rule="evenodd" d="M5.648 1.5c0-.345.28-.625.625-.625h5.454c.345 0 .625.28.625.625v2.102H16.5a.625.625 0 110 1.25h-15a.625.625 0 110-1.25h4.148V1.5zm1.25 2.102h4.204V2.125H6.898v1.477zM3.5 6.332a.625.625 0 01.668.578l.591 8.279a.739.739 0 00.737.686h7.006a.739.739 0 00.737-.686l.591-8.279a.625.625 0 111.247.09l-.591 8.278a1.99 1.99 0 01-1.984 1.847H5.497a1.989 1.989 0 01-1.984-1.847l-.59-8.279a.625.625 0 01.578-.668zm3.832 1.21c.346 0 .625.28.625.625v4.166a.625.625 0 11-1.25 0V8.167c0-.346.28-.625.625-.625zm3.334 0c.345 0 .625.28.625.625v4.166a.625.625 0 01-1.25 0V8.167c0-.346.28-.625.625-.625z" fill="#787878"/></svg>