<svg xmlns="http://www.w3.org/2000/svg" version="1.1" x="0" y="0" viewBox="0 0 100 76" xml:space="preserve" id="svg10"><style type="text/css" id="style2"/><g id="Layer_1"><g id="g6"><path d="M50 0c5.2 0 9.9 2.1 13.3 5.5 3.4 3.4 5.5 8.1 5.5 13.2 0 5.2-2.1 9.9-5.5 13.3-1.6 1.6-3.4 2.8-5.4 3.8 5.4 1.4 10.1 4.2 13.9 8 5.6 5.6 9.1 13.3 9.1 21.7v3.7c0 1.9-.8 3.6-2 4.8-1.2 1.3-2.9 2-4.8 2H26c-1.9 0-3.6-.7-4.8-2l-.1-.1c-1.2-1.2-1.9-2.9-1.9-4.7v-3.7c0-8.5 3.5-16.1 9.1-21.7 3.8-3.8 8.5-6.6 13.9-8-2-1-3.8-2.2-5.4-3.8-3.4-3.4-5.5-8.1-5.5-13.3 0-5.1 2.1-9.8 5.5-13.2C40.1 2.1 44.8 0 50 0zm18.8 46.6C64 41.7 57.4 38.7 50 38.7s-14 3-18.8 7.9c-4.9 4.9-7.9 11.6-7.9 18.8v3.7c0 .7.3 1.4.7 1.8l.1.1c.5.5 1.2.8 1.9.8h48c.7 0 1.4-.3 1.9-.8s.8-1.1.8-1.9v-3.7c0-7.3-3-14-7.9-18.8zM60.3 8.4C57.7 5.7 54 4.1 50 4.1c-4 0-7.7 1.6-10.4 4.3-2.6 2.6-4.2 6.3-4.2 10.3 0 4.1 1.6 7.8 4.2 10.4 2.7 2.6 6.4 4.3 10.4 4.3s7.7-1.7 10.3-4.3c2.7-2.6 4.3-6.3 4.3-10.4-.1-4-1.6-7.7-4.3-10.3z" id="path4" fill="#606060"/></g></g></svg>