<svg xmlns="http://www.w3.org/2000/svg" viewBox="0 0 100 89"><style/><path d="M98.9 16L86.5 65.5c-.2 1-1.3 1.7-2.3 1.7H37.5l1 4.1c3.9.1 7.1 2.9 8.2 6.4l22.7.3c1-3.8 4.5-6.6 8.5-6.6 4.8 0 8.9 3.9 8.9 8.9 0 4.8-4 8.7-8.9 8.7-4 0-7.4-2.6-8.5-6.3l-22.8-.1c-1 3.7-4.5 6.4-8.5 6.4-4.8 0-8.9-3.9-8.9-8.7 0-3.3 1.8-6.2 4.6-7.7L29.6 55l-9.8-39.1c0-.1-.1-.2-.1-.3L17.2 5.3H3.5c-1.3 0-2.4-1-2.4-2.4C1.1 1.6 2.3.6 3.5.6H19c1.3 0 2.2.8 2.4 2L24 13h72.6c1.3 0 2.3 1 2.3 2.3v.7zM66.4 62.6l.5-7.7H51.8l.5 7.7h14.1zm.7-12.5l.9-13.8H50.7l.8 13.8h15.6zm1.3-18.5l.8-13.9H49.4l.9 13.9h18.1zm5.5-13.9l-.8 13.9H90l3.6-13.9H73.9zm-1.1 18.6L72 50.1h13.5l3.4-13.8H72.8zm-1.2 18.5l-.5 7.7h11.2l2-7.7H71.6zm-24 7.8l-.5-7.7H34.5l2 7.7h11.1zm-.8-12.5l-.9-13.8h-16l3.4 13.8h13.5zm-1.2-18.5l-.9-13.9H25.2l1.4 5.3 2.1 8.6h16.9z" fill="#fff" id="Layer_1"/></svg>